<svg width="19" height="20" viewBox="0 0 19 20" fill="none" xmlns="http://www.w3.org/2000/svg">
<g clip-path="url(#clip0_1033_2858)">
<path fill-rule="evenodd" clip-rule="evenodd" d="M12.037 1.00677C12.0891 0.954473 12.1511 0.912985 12.2193 0.884676C12.2875 0.856368 12.3607 0.841797 12.4345 0.841797C12.5084 0.841797 12.5815 0.856368 12.6497 0.884676C12.718 0.912985 12.7799 0.954473 12.8321 1.00677L17.3243 5.49897C17.3766 5.55113 17.4181 5.6131 17.4464 5.68132C17.4747 5.74954 17.4893 5.82267 17.4893 5.89653C17.4893 5.97039 17.4747 6.04353 17.4464 6.11175C17.4181 6.17997 17.3766 6.24193 17.3243 6.29409L15.1882 8.43014L14.2572 12.1508C14.1864 12.4341 14.0432 12.6942 13.8416 12.9054C13.64 13.1167 13.3869 13.2719 13.1072 13.3558L1.48926 16.8418L4.97521 5.2227C5.05924 4.94335 5.21436 4.69061 5.4254 4.48922C5.63643 4.28783 5.89615 4.14469 6.17912 4.07382L9.89979 3.14393L12.037 1.00677ZM10.0155 4.2726L6.45202 5.16318C6.35743 5.18679 6.27062 5.23462 6.20012 5.30197C6.12963 5.36931 6.07788 5.45385 6.04997 5.54726L3.16373 15.1662L12.7849 12.28C12.8778 12.2518 12.9618 12.2001 13.0287 12.1298C13.0956 12.0596 13.1432 11.9732 13.1668 11.879L14.0585 8.31446L10.0155 4.27148V4.2726Z" fill="white"/>
<path fill-rule="evenodd" clip-rule="evenodd" d="M3.26162 15.1369L9.06556 10.3887C9.28767 10.3887 9.50481 10.3228 9.68949 10.1994C9.87418 10.076 10.0181 9.90062 10.1031 9.6954C10.1881 9.49019 10.2104 9.26438 10.167 9.04653C10.1237 8.82868 10.0167 8.62857 9.85967 8.47151C9.70261 8.31445 9.5025 8.20749 9.28465 8.16416C9.0668 8.12082 8.84099 8.14306 8.63578 8.22807C8.43057 8.31307 8.25517 8.45701 8.13177 8.6417C8.00837 8.82638 7.9425 9.04351 7.9425 9.26563L3.19424 15.0696L3.16504 15.1661L3.26162 15.1369Z" fill="white"/>
</g>
<defs>
<clipPath id="clip0_1033_2858">
<rect width="19" height="19" fill="white" transform="translate(0 0.25)"/>
</clipPath>
</defs>
</svg>
